# Blender v2.78 (sub 0) OBJ File: 'grass.blend'
# www.blender.org
mtllib grass.mtl
o mesh949972352
v -0.000618 0.054637 0.038932
v -0.004354 -0.000000 0.008247
v -0.012419 0.000000 -0.000787
v -0.009761 -0.000000 0.014536
v -0.012175 0.054332 0.043067
v -0.017919 -0.000000 0.008978
v -0.016141 0.137213 0.076947
v -0.007549 0.056036 0.034300
v -0.004949 0.053188 0.046771
vt -0.0986 0.1338
vt -0.0948 0.1281
vt -0.0957 0.1273
vt 0.1391 0.0796
vt 0.1450 0.0829
vt 0.1396 0.0788
vt 0.0289 -0.0383
vt 0.0292 -0.0391
vt 0.0277 -0.0386
vt -0.1654 0.0616
vt -0.1564 0.0594
vt -0.1567 0.0586
vt -0.1542 0.0393
vt -0.1607 0.0415
vt -0.1535 0.0402
vt 0.1636 0.0332
vt 0.1571 0.0311
vt 0.1567 0.0318
vt -0.1452 0.0678
vt -0.1510 0.0715
vt -0.1506 0.0723
vt -0.1603 0.0433
vt -0.1597 0.0442
vt -0.1532 0.0420
vt 0.1555 0.0377
vt 0.1619 0.0400
vt 0.1624 0.0392
vt 0.1478 0.0618
vt 0.1538 0.0651
vt 0.1541 0.0644
vt 0.1741 0.0205
vt 0.1653 0.0184
vt 0.1649 0.0192
vt 0.1586 0.0748
vt 0.1504 0.0712
vt 0.1500 0.0720
vt -0.1736 0.0315
vt -0.1646 0.0298
vt -0.1650 0.0289
vt 0.0244 -0.0537
vt 0.0235 -0.0541
vt 0.0228 -0.0532
vn 0.7099 0.3074 -0.6337
vn -0.5117 -0.4172 0.7511
vn 0.0000 -1.0000 -0.0000
vn 0.5599 0.4310 -0.7076
vn -0.8090 0.3714 -0.4556
vn 0.6880 -0.4207 0.5914
vn 0.5634 0.4027 -0.7214
vn -0.8620 0.3207 -0.3925
vn 0.8585 -0.2945 0.4198
vn -0.4650 -0.4277 0.7751
vn 0.8782 -0.0537 0.4752
vn -0.4704 -0.3531 0.8087
vn -0.8868 0.1379 -0.4411
usemtl mat9
s 1
f 1/1/1 2/2/1 3/3/1
f 4/4/2 5/5/2 6/6/2
f 2/7/3 4/8/3 3/9/3
f 7/10/4 1/11/4 8/12/4
f 6/13/5 5/14/5 3/15/5
f 9/16/6 4/17/6 2/18/6
f 3/19/7 8/20/7 1/21/7
f 5/22/8 8/23/8 3/24/8
f 2/25/9 1/26/9 9/27/9
f 4/28/10 9/29/10 5/30/10
f 7/31/11 9/32/11 1/33/11
f 7/34/12 5/35/12 9/36/12
f 7/37/13 8/38/13 5/39/13
f 4/40/3 6/41/3 3/42/3
o mesh149050868
v 0.019070 0.054858 -0.035752
v 0.002846 0.000000 -0.022362
v -0.003675 0.000000 -0.011915
v 0.010579 0.000000 -0.019158
v 0.026490 0.056018 -0.026038
v 0.007358 0.000000 -0.009696
v 0.033184 0.138533 -0.048238
v 0.016577 0.055855 -0.027736
v 0.027978 0.055089 -0.034049
vt -0.1606 0.0265
vt -0.1563 0.0212
vt -0.1572 0.0203
vt 0.1533 0.0408
vt 0.1574 0.0462
vt 0.1542 0.0402
vt 0.0871 -0.0389
vt 0.0876 -0.0382
vt 0.0879 -0.0398
vt -0.1626 0.0516
vt -0.1575 0.0447
vt -0.1582 0.0442
vt 0.0852 0.0696
vt 0.0897 0.0747
vt 0.0858 0.0687
vt -0.0733 0.0941
vt -0.0690 0.0889
vt -0.0695 0.0882
vt -0.1519 0.0456
vt -0.1549 0.0518
vt -0.1543 0.0523
vt 0.0952 0.0705
vt 0.0958 0.0696
vt 0.0912 0.0645
vt -0.0944 0.0687
vt -0.0991 0.0735
vt -0.0987 0.0743
vt 0.1459 0.0583
vt 0.1486 0.0646
vt 0.1493 0.0641
vt -0.1135 0.0805
vt -0.1065 0.0757
vt -0.1070 0.0749
vt 0.1611 0.0562
vt 0.1569 0.0487
vt 0.1562 0.0493
vt 0.1042 0.0761
vt 0.0978 0.0703
vt 0.0973 0.0711
vt 0.1011 -0.0307
vt 0.1020 -0.0312
vt 0.1015 -0.0323
vn -0.8421 0.1207 -0.5257
vn 0.9227 -0.2235 0.3141
vn -0.0000 -1.0000 -0.0000
vn -0.9447 0.1134 -0.3079
vn -0.1858 0.3331 0.9244
vn 0.3589 -0.3475 -0.8663
vn -0.9172 0.2432 -0.3155
vn -0.1649 0.3237 0.9317
vn 0.1871 -0.2848 -0.9402
vn 0.9480 -0.2442 0.2044
vn 0.1892 -0.1761 -0.9660
vn 0.9821 -0.0297 0.1858
vn -0.1669 0.2688 0.9486
usemtl mat9
s 1
f 10/43/14 11/44/14 12/45/14
f 13/46/15 14/47/15 15/48/15
f 11/49/16 13/50/16 12/51/16
f 16/52/17 10/53/17 17/54/17
f 15/55/18 14/56/18 12/57/18
f 18/58/19 13/59/19 11/60/19
f 12/61/20 17/62/20 10/63/20
f 14/64/21 17/65/21 12/66/21
f 11/67/22 10/68/22 18/69/22
f 13/70/23 18/71/23 14/72/23
f 16/73/24 18/74/24 10/75/24
f 16/76/25 14/77/25 18/78/25
f 16/79/26 17/80/26 14/81/26
f 13/82/16 15/83/16 12/84/16
o mesh1625344367
v 0.053699 0.037702 0.021139
v 0.035072 -0.000000 0.011240
v 0.026511 -0.000000 0.006910
v 0.033259 -0.000000 0.017601
v 0.046854 0.039776 0.027767
v 0.025802 -0.000000 0.015781
v 0.073430 0.102432 0.028917
v 0.047317 0.039302 0.019806
v 0.053153 0.038214 0.028305
vt -0.1025 0.1067
vt -0.0996 0.1021
vt -0.1003 0.1015
vt 0.1260 0.0779
vt 0.1299 0.0816
vt 0.1266 0.0774
vt 0.0591 -0.0732
vt 0.0596 -0.0736
vt 0.0584 -0.0738
vt -0.1305 0.0837
vt -0.1258 0.0789
vt -0.1262 0.0784
vt -0.1323 0.0710
vt -0.1357 0.0752
vt -0.1315 0.0714
vt 0.1490 0.0582
vt 0.1453 0.0543
vt 0.1447 0.0546
vt -0.1316 0.0719
vt -0.1351 0.0761
vt -0.1347 0.0766
vt -0.1322 0.0802
vt -0.1314 0.0805
vt -0.1280 0.0762
vt 0.1324 0.0744
vt 0.1357 0.0786
vt 0.1363 0.0783
vt 0.1368 0.0624
vt 0.1405 0.0663
vt 0.1409 0.0658
vt 0.1429 0.0837
vt 0.1396 0.0778
vt 0.1390 0.0782
vt 0.1310 0.0717
vt 0.1267 0.0664
vt 0.1263 0.0669
vt -0.1361 0.0865
vt -0.1323 0.0808
vt -0.1330 0.0804
vt 0.0635 -0.0845
vt 0.0630 -0.0851
vt 0.0622 -0.0847
vn 0.4513 0.0113 -0.8923
vn -0.2339 -0.1649 0.9582
vn -0.0000 -1.0000 -0.0000
vn 0.2164 0.0512 -0.9750
vn -0.8729 0.4830 -0.0697
vn 0.8328 -0.5001 0.2374
vn 0.2447 0.1829 -0.9522
vn -0.8700 0.4867 -0.0796
vn 0.8814 -0.4617 0.1001
vn -0.1331 -0.2025 0.9702
vn 0.9491 -0.3006 0.0937
vn -0.0812 0.0161 0.9966
vn -0.9174 0.3905 -0.0766
usemtl mat9
s 1
f 19/85/27 20/86/27 21/87/27
f 22/88/28 23/89/28 24/90/28
f 20/91/29 22/92/29 21/93/29
f 25/94/30 19/95/30 26/96/30
f 24/97/31 23/98/31 21/99/31
f 27/100/32 22/101/32 20/102/32
f 21/103/33 26/104/33 19/105/33
f 23/106/34 26/107/34 21/108/34
f 20/109/35 19/110/35 27/111/35
f 22/112/36 27/113/36 23/114/36
f 25/115/37 27/116/37 19/117/37
f 25/118/38 23/119/38 27/120/38
f 25/121/39 26/122/39 23/123/39
f 22/124/29 24/125/29 21/126/29
o mesh883053433
v 0.031477 0.055172 0.016716
v 0.020131 0.000000 -0.001388
v 0.009624 0.000000 -0.007848
v 0.016934 -0.000000 0.006354
v 0.021745 0.055801 0.024176
v 0.007402 -0.000000 0.003206
v 0.018196 0.138371 0.030618
v 0.023429 0.055984 0.014261
v 0.029784 0.055086 0.025629
vt -0.1156 0.1085
vt -0.1109 0.1035
vt -0.1117 0.1025
vt 0.1342 0.0758
vt 0.1400 0.0793
vt 0.1348 0.0749
vt 0.0556 -0.0497
vt 0.0562 -0.0503
vt 0.0546 -0.0504
vt -0.1475 0.0802
vt -0.1394 0.0777
vt -0.1398 0.0769
vt -0.1444 0.0608
vt -0.1498 0.0649
vt -0.1435 0.0614
vt 0.1582 0.0482
vt 0.1525 0.0444
vt 0.1519 0.0450
vt -0.1389 0.0685
vt -0.1444 0.0727
vt -0.1440 0.0735
vt -0.1477 0.0693
vt -0.1468 0.0699
vt -0.1414 0.0656
vt 0.1455 0.0607
vt 0.1508 0.0649
vt 0.1515 0.0644
vt 0.1418 0.0613
vt 0.1475 0.0653
vt 0.1478 0.0645
vt 0.1710 0.0223
vt 0.1637 0.0180
vt 0.1632 0.0187
vt 0.1414 0.0762
vt 0.1338 0.0727
vt 0.1334 0.0734
vt -0.1684 0.0437
vt -0.1612 0.0395
vt -0.1618 0.0387
vt 0.0578 -0.0634
vt 0.0571 -0.0642
vt 0.0562 -0.0636
vn 0.5162 0.1693 -0.8396
vn -0.3022 -0.2663 0.9153
vn -0.0000 -1.0000 -0.0000
vn 0.3044 0.2041 -0.9304
vn -0.9321 0.3100 -0.1873
vn 0.8726 -0.3297 0.3604
vn 0.3058 0.2835 -0.9089
vn -0.9433 0.2937 -0.1548
vn 0.9507 -0.2539 0.1781
vn -0.1948 -0.2831 0.9391
vn 0.9746 0.1245 0.1862
vn -0.1844 -0.0843 0.9792
vn -0.9854 -0.0293 -0.1679
usemtl mat9
s 1
f 28/127/40 29/128/40 30/129/40
f 31/130/41 32/131/41 33/132/41
f 29/133/42 31/134/42 30/135/42
f 34/136/43 28/137/43 35/138/43
f 33/139/44 32/140/44 30/141/44
f 36/142/45 31/143/45 29/144/45
f 30/145/46 35/146/46 28/147/46
f 32/148/47 35/149/47 30/150/47
f 29/151/48 28/152/48 36/153/48
f 31/154/49 36/155/49 32/156/49
f 34/157/50 36/158/50 28/159/50
f 34/160/51 32/161/51 36/162/51
f 34/163/52 35/164/52 32/165/52
f 31/166/42 33/167/42 30/168/42
o mesh732216278
v 0.034366 0.049089 0.043415
v 0.024151 -0.000000 0.012977
v 0.012041 -0.000000 0.015349
v 0.027257 -0.000000 0.020323
v 0.032570 0.044726 0.054751
v 0.018057 -0.000000 0.024594
v 0.039403 0.126051 0.080938
v 0.026870 0.047231 0.046851
v 0.039352 0.046842 0.050654
vt -0.1639 0.0314
vt -0.1576 0.0289
vt -0.1579 0.0276
vt 0.1577 0.0270
vt 0.1642 0.0289
vt 0.1580 0.0261
vt 0.0222 -0.0129
vt 0.0231 -0.0130
vt 0.0219 -0.0142
vt -0.1723 0.0330
vt -0.1641 0.0304
vt -0.1643 0.0296
vt 0.0119 0.1546
vt 0.0118 0.1614
vt 0.0130 0.1543
vt 0.0559 0.1529
vt 0.0533 0.1466
vt 0.0525 0.1468
vt -0.1573 0.0260
vt -0.1636 0.0289
vt -0.1634 0.0297
vt 0.0304 0.1594
vt 0.0313 0.1591
vt 0.0308 0.1522
vt -0.0282 0.1546
vt -0.0289 0.1613
vt -0.0281 0.1616
vt 0.1571 0.0289
vt 0.1634 0.0316
vt 0.1636 0.0308
vt -0.0428 0.1689
vt -0.0399 0.1610
vt -0.0407 0.1606
vt 0.1718 0.0313
vt 0.1639 0.0280
vt 0.1637 0.0288
vt 0.0354 0.1678
vt 0.0338 0.1593
vt 0.0328 0.1596
vt 0.0344 -0.0231
vt 0.0344 -0.0241
vt 0.0333 -0.0243
vn -0.1613 0.5441 -0.8234
vn 0.3371 -0.5991 0.7262
vn 0.0000 -1.0000 -0.0000
vn -0.4621 0.4129 -0.7849
vn -0.8343 -0.0953 0.5429
vn 0.9209 0.0144 -0.3894
vn -0.4528 0.5888 -0.6696
vn -0.8224 -0.1135 0.5574
vn 0.8355 0.1534 -0.5277
vn 0.5510 -0.5492 0.6284
vn 0.8350 0.1960 -0.5142
vn 0.5599 -0.2962 0.7738
vn -0.8223 -0.1107 0.5582
usemtl mat9
s 1
f 37/169/53 38/170/53 39/171/53
f 40/172/54 41/173/54 42/174/54
f 38/175/55 40/176/55 39/177/55
f 43/178/56 37/179/56 44/180/56
f 42/181/57 41/182/57 39/183/57
f 45/184/58 40/185/58 38/186/58
f 39/187/59 44/188/59 37/189/59
f 41/190/60 44/191/60 39/192/60
f 38/193/61 37/194/61 45/195/61
f 40/196/62 45/197/62 41/198/62
f 43/199/63 45/200/63 37/201/63
f 43/202/64 41/203/64 45/204/64
f 43/205/65 44/206/65 41/207/65
f 40/208/55 42/209/55 39/210/55
o mesh1087128645
v 0.058280 0.052628 -0.022135
v 0.031080 0.000000 -0.010416
v 0.024333 0.000000 -0.000327
v 0.038567 0.000000 -0.006786
v 0.065229 0.052544 -0.012013
v 0.035207 -0.000000 0.002507
v 0.088717 0.133912 -0.023485
v 0.055533 0.053996 -0.014259
v 0.066997 0.051407 -0.019940
vt -0.1601 0.0352
vt -0.1564 0.0295
vt -0.1573 0.0287
vt 0.1513 0.0450
vt 0.1549 0.0507
vt 0.1522 0.0445
vt 0.0796 -0.0598
vt 0.0802 -0.0592
vt 0.0804 -0.0608
vt -0.1580 0.0610
vt -0.1529 0.0540
vt -0.1536 0.0535
vt 0.0798 0.0709
vt 0.0833 0.0767
vt 0.0805 0.0700
vt -0.0632 0.0942
vt -0.0598 0.0883
vt -0.0605 0.0877
vt -0.1496 0.0482
vt -0.1522 0.0546
vt -0.1515 0.0550
vt 0.0895 0.0733
vt 0.0902 0.0725
vt 0.0867 0.0666
vt -0.0888 0.0717
vt -0.0926 0.0773
vt -0.0920 0.0779
vt 0.1430 0.0591
vt 0.1455 0.0655
vt 0.1462 0.0651
vt -0.1154 0.0898
vt -0.1094 0.0837
vt -0.1100 0.0830
vt 0.1555 0.0685
vt 0.1513 0.0611
vt 0.1506 0.0615
vt 0.1075 0.0854
vt 0.1024 0.0784
vt 0.1017 0.0792
vt 0.0959 -0.0507
vt 0.0967 -0.0513
vt 0.0962 -0.0523
vn -0.7949 0.2924 -0.5316
vn 0.8597 -0.4053 0.3108
vn 0.0000 -1.0000 -0.0000
vn -0.8753 0.3217 -0.3611
vn -0.2332 0.3806 0.8949
vn 0.3946 -0.4265 -0.8139
vn -0.8443 0.3942 -0.3629
vn -0.1648 0.3346 0.9278
vn 0.1918 -0.3067 -0.9323
vn 0.8724 -0.4174 0.2545
vn 0.2295 -0.1020 -0.9680
vn 0.9404 -0.2371 0.2438
vn -0.1941 0.1917 0.9621
usemtl mat9
s 1
f 46/211/66 47/212/66 48/213/66
f 49/214/67 50/215/67 51/216/67
f 47/217/68 49/218/68 48/219/68
f 52/220/69 46/221/69 53/222/69
f 51/223/70 50/224/70 48/225/70
f 54/226/71 49/227/71 47/228/71
f 48/229/72 53/230/72 46/231/72
f 50/232/73 53/233/73 48/234/73
f 47/235/74 46/236/74 54/237/74
f 49/238/75 54/239/75 50/240/75
f 52/241/76 54/242/76 46/243/76
f 52/244/77 50/245/77 54/246/77
f 52/247/78 53/248/78 50/249/78
f 49/250/68 51/251/68 48/252/68
o mesh838631015
v -0.013926 0.054715 0.014139
v -0.010311 0.000000 -0.001153
v -0.007361 0.000000 -0.013194
v -0.018577 0.000000 -0.001725
v -0.023899 0.056745 0.007271
v -0.018356 0.000000 -0.011798
v 0.006441 0.136831 0.017616
v -0.014054 0.055396 0.005715
v -0.022821 0.056011 0.015367
vt 0.1625 0.0346
vt 0.1565 0.0315
vt 0.1557 0.0325
vt -0.1518 0.0501
vt -0.1570 0.0545
vt -0.1512 0.0509
vt 0.0440 -0.0548
vt 0.0436 -0.0555
vt 0.0431 -0.0540
vt 0.1313 0.1020
vt 0.1275 0.0945
vt 0.1267 0.0949
vt -0.1508 0.0395
vt -0.1574 0.0414
vt -0.1502 0.0405
vt 0.1526 0.0532
vt 0.1461 0.0509
vt 0.1457 0.0517
vt 0.1497 0.0541
vt 0.1555 0.0578
vt 0.1561 0.0571
vt -0.1576 0.0394
vt -0.1571 0.0403
vt -0.1505 0.0385
vt 0.1484 0.0403
vt 0.1548 0.0425
vt 0.1553 0.0417
vt -0.1355 0.0844
vt -0.1402 0.0893
vt -0.1396 0.0898
vt 0.1531 0.0486
vt 0.1469 0.0426
vt 0.1464 0.0433
vt -0.1054 0.1168
vt -0.1020 0.1089
vt -0.1028 0.1086
vt -0.1598 0.0469
vt -0.1529 0.0419
vt -0.1535 0.0410
vt 0.0271 -0.0623
vt 0.0262 -0.0618
vt 0.0266 -0.0608
vn 0.9713 -0.0023 0.2379
vn -0.9957 -0.0899 -0.0218
vn 0.0000 -1.0000 -0.0000
vn 0.9704 -0.2392 -0.0340
vn -0.1200 0.3057 -0.9445
vn -0.0659 -0.2958 0.9530
vn 0.9926 0.1217 -0.0052
vn -0.1069 0.3096 -0.9448
vn 0.0943 -0.2622 0.9604
vn -0.9863 -0.1117 0.1212
vn 0.1259 -0.0731 0.9893
vn -0.9304 0.3326 0.1540
vn -0.1302 0.1754 -0.9759
usemtl mat9
s 1
f 55/253/79 56/254/79 57/255/79
f 58/256/80 59/257/80 60/258/80
f 56/259/81 58/260/81 57/261/81
f 61/262/82 55/263/82 62/264/82
f 60/265/83 59/266/83 57/267/83
f 63/268/84 58/269/84 56/270/84
f 57/271/85 62/272/85 55/273/85
f 59/274/86 62/275/86 57/276/86
f 56/277/87 55/278/87 63/279/87
f 58/280/88 63/281/88 59/282/88
f 61/283/89 63/284/89 55/285/89
f 61/286/90 59/287/90 63/288/90
f 61/289/91 62/290/91 59/291/91
f 58/292/81 60/293/81 57/294/81
o mesh268584861
v -0.004749 0.032648 -0.057478
v -0.020371 0.000000 -0.020354
v -0.023933 0.000000 -0.011699
v -0.013032 0.000000 -0.019060
v 0.003615 0.035995 -0.051278
v -0.013886 0.000000 -0.011858
v 0.003893 0.100851 -0.085253
v -0.005320 0.036617 -0.051106
v 0.003319 0.032220 -0.057524
vt -0.1582 0.0252
vt -0.1568 0.0193
vt -0.1578 0.0189
vt 0.1498 0.0499
vt 0.1505 0.0559
vt 0.1507 0.0498
vt 0.1386 -0.0214
vt 0.1388 -0.0207
vt 0.1397 -0.0218
vt -0.1507 0.0682
vt -0.1484 0.0611
vt -0.1491 0.0610
vt 0.0521 0.0140
vt 0.0561 0.0186
vt 0.0526 0.0132
vt -0.0404 0.0396
vt -0.0363 0.0351
vt -0.0367 0.0345
vt -0.1476 0.0553
vt -0.1472 0.0614
vt -0.1464 0.0615
vt 0.0620 0.0149
vt 0.0625 0.0141
vt 0.0585 0.0095
vt -0.0619 0.0161
vt -0.0660 0.0205
vt -0.0656 0.0211
vt 0.1365 0.0709
vt 0.1356 0.0769
vt 0.1364 0.0769
vt -0.1048 0.0463
vt -0.0985 0.0425
vt -0.0989 0.0418
vt 0.1372 0.0917
vt 0.1367 0.0844
vt 0.1360 0.0844
vt 0.0956 0.0378
vt 0.0898 0.0333
vt 0.0893 0.0340
vt 0.1447 -0.0094
vt 0.1456 -0.0095
vt 0.1457 -0.0105
vn -0.9247 0.0098 -0.3805
vn 0.9362 -0.3335 0.1111
vn 0.0000 -1.0000 -0.0000
vn -0.9886 0.0711 -0.1329
vn 0.0108 0.7360 0.6769
vn 0.1078 -0.7842 -0.6111
vn -0.9449 0.2330 -0.2298
vn 0.0633 0.7160 0.6952
vn -0.0432 -0.7411 -0.6700
vn 0.9407 -0.3081 0.1418
vn -0.0252 -0.3743 -0.9270
vn 0.9992 -0.0221 -0.0339
vn 0.0493 0.4633 0.8848
usemtl mat9
s 1
f 64/295/92 65/296/92 66/297/92
f 67/298/93 68/299/93 69/300/93
f 65/301/94 67/302/94 66/303/94
f 70/304/95 64/305/95 71/306/95
f 69/307/96 68/308/96 66/309/96
f 72/310/97 67/311/97 65/312/97
f 66/313/98 71/314/98 64/315/98
f 68/316/99 71/317/99 66/318/99
f 65/319/100 64/320/100 72/321/100
f 67/322/101 72/323/101 68/324/101
f 70/325/102 72/326/102 64/327/102
f 70/328/103 68/329/103 72/330/103
f 70/331/104 71/332/104 68/333/104
f 67/334/94 69/335/94 66/336/94
o mesh1660468851
v -0.047174 0.058958 -0.013487
v -0.038709 0.000000 -0.007196
v -0.028017 0.000000 -0.013393
v -0.043986 0.000000 -0.013696
v -0.049103 0.058551 -0.025606
v -0.036535 0.000000 -0.020688
v -0.066218 0.164324 0.013925
v -0.041218 0.057914 -0.019394
v -0.054165 0.059573 -0.019236
vt 0.1462 0.0075
vt 0.1399 0.0051
vt 0.1392 0.0062
vt -0.1439 -0.0078
vt -0.1500 -0.0047
vt -0.1435 -0.0068
vt 0.0682 -0.0542
vt 0.0674 -0.0545
vt 0.0679 -0.0530
vt 0.1722 0.0166
vt 0.1614 0.0144
vt 0.1609 0.0151
vt -0.0856 0.1217
vt -0.0915 0.1250
vt -0.0848 0.1224
vt 0.0569 0.1469
vt 0.0518 0.1423
vt 0.0512 0.1428
vt 0.1432 -0.0103
vt 0.1497 -0.0081
vt 0.1501 -0.0089
vt -0.0952 0.1203
vt -0.0945 0.1210
vt -0.0884 0.1179
vt 0.0790 0.1215
vt 0.0847 0.1252
vt 0.0854 0.1246
vt -0.1490 -0.0102
vt -0.1554 -0.0076
vt -0.1549 -0.0069
vt 0.1465 0.0961
vt 0.1366 0.0910
vt 0.1363 0.0918
vt -0.1741 0.0219
vt -0.1628 0.0199
vt -0.1633 0.0193
vt -0.1586 0.0766
vt -0.1475 0.0737
vt -0.1478 0.0727
vt 0.0520 -0.0526
vt 0.0517 -0.0516
vt 0.0527 -0.0511
vn 0.4948 0.1621 0.8537
vn -0.6700 -0.2038 -0.7139
vn 0.0000 -1.0000 -0.0000
vn 0.6976 -0.0597 0.7140
vn 0.6486 0.0756 -0.7573
vn -0.7742 -0.0738 0.6286
vn 0.7053 0.2302 0.6705
vn 0.6208 0.0605 -0.7817
vn -0.6356 -0.0089 0.7720
vn -0.7833 -0.1889 -0.5922
vn -0.6214 -0.3006 0.7235
vn -0.7693 0.1107 -0.6292
vn 0.5944 0.3642 -0.7170
usemtl mat9
s 1
f 73/337/105 74/338/105 75/339/105
f 76/340/106 77/341/106 78/342/106
f 74/343/107 76/344/107 75/345/107
f 79/346/108 73/347/108 80/348/108
f 78/349/109 77/350/109 75/351/109
f 81/352/110 76/353/110 74/354/110
f 75/355/111 80/356/111 73/357/111
f 77/358/112 80/359/112 75/360/112
f 74/361/113 73/362/113 81/363/113
f 76/364/114 81/365/114 77/366/114
f 79/367/115 81/368/115 73/369/115
f 79/370/116 77/371/116 81/372/116
f 79/373/117 80/374/117 77/375/117
f 76/376/107 78/377/107 75/378/107
o mesh1478955019
v -0.051101 0.077017 -0.002738
v -0.035810 0.000000 -0.003998
v -0.032902 0.000000 -0.017357
v -0.045064 0.000000 -0.004480
v -0.062448 0.075873 -0.010125
v -0.045266 0.000000 -0.015779
v -0.068536 0.173070 0.010383
v -0.051476 0.075711 -0.011994
v -0.061030 0.077203 -0.001260
vt 0.1654 0.0039
vt 0.1587 0.0006
vt 0.1578 0.0017
vt -0.1584 0.0258
vt -0.1639 0.0308
vt -0.1576 0.0266
vt 0.0852 -0.0382
vt 0.0849 -0.0391
vt 0.0840 -0.0375
vt 0.1660 0.0613
vt 0.1583 0.0551
vt 0.1576 0.0556
vt -0.1409 0.0388
vt -0.1483 0.0403
vt -0.1403 0.0399
vt 0.1426 0.0546
vt 0.1353 0.0527
vt 0.1349 0.0536
vt 0.1563 0.0323
vt 0.1624 0.0368
vt 0.1631 0.0362
vt -0.1485 0.0370
vt -0.1480 0.0380
vt -0.1405 0.0366
vt 0.1371 0.0373
vt 0.1444 0.0392
vt 0.1448 0.0383
vt -0.1369 0.0850
vt -0.1409 0.0914
vt -0.1400 0.0918
vt 0.1622 0.0418
vt 0.1530 0.0386
vt 0.1526 0.0395
vt -0.1336 0.1150
vt -0.1279 0.1069
vt -0.1287 0.1067
vt -0.1674 0.0392
vt -0.1574 0.0371
vt -0.1579 0.0361
vt 0.0714 -0.0489
vt 0.0704 -0.0486
vt 0.0706 -0.0474
vn 0.9599 0.1871 0.2090
vn -0.9749 -0.2221 0.0174
vn 0.0000 -1.0000 -0.0000
vn 0.9801 0.1869 -0.0661
vn -0.1265 0.0452 -0.9909
vn -0.0519 -0.0523 0.9973
vn 0.9674 0.2425 -0.0734
vn -0.1674 0.0287 -0.9855
vn 0.1475 0.0131 0.9890
vn -0.9609 -0.2064 0.1847
vn 0.1444 -0.1082 0.9836
vn -0.9803 -0.0976 0.1715
vn -0.1620 0.1940 -0.9675
usemtl mat9
s 1
f 82/379/118 83/380/118 84/381/118
f 85/382/119 86/383/119 87/384/119
f 83/385/120 85/386/120 84/387/120
f 88/388/121 82/389/121 89/390/121
f 87/391/122 86/392/122 84/393/122
f 90/394/123 85/395/123 83/396/123
f 84/397/124 89/398/124 82/399/124
f 86/400/125 89/401/125 84/402/125
f 83/403/126 82/404/126 90/405/126
f 85/406/127 90/407/127 86/408/127
f 88/409/128 90/410/128 82/411/128
f 88/412/129 86/413/129 90/414/129
f 88/415/130 89/416/130 86/417/130
f 85/418/120 87/419/120 84/420/120
o mesh961515343
v 0.027127 0.054343 0.043998
v 0.016104 -0.000000 0.024484
v 0.008245 -0.000000 0.015079
v 0.010712 -0.000000 0.030867
v 0.015682 0.056080 0.048092
v 0.002806 -0.000000 0.024906
v 0.055444 0.133446 0.061330
v 0.020316 0.055681 0.039173
v 0.022799 0.054795 0.051959
vt -0.0491 0.1522
vt -0.0467 0.1458
vt -0.0478 0.1452
vt 0.1012 0.1168
vt 0.1059 0.1216
vt 0.1019 0.1161
vt 0.0509 -0.0605
vt 0.0512 -0.0613
vt 0.0497 -0.0609
vt -0.0874 0.1315
vt -0.0835 0.1238
vt -0.0841 0.1233
vt -0.1562 0.0359
vt -0.1622 0.0393
vt -0.1554 0.0367
vt 0.1648 0.0316
vt 0.1588 0.0284
vt 0.1582 0.0290
vt -0.1116 0.1076
vt -0.1161 0.1129
vt -0.1155 0.1136
vt -0.1615 0.0413
vt -0.1608 0.0421
vt -0.1548 0.0387
vt 0.1567 0.0353
vt 0.1625 0.0387
vt 0.1632 0.0380
vt 0.1210 0.0957
vt 0.1259 0.1004
vt 0.1264 0.0998
vt 0.1662 0.0486
vt 0.1604 0.0423
vt 0.1597 0.0429
vt 0.0941 0.1172
vt 0.0906 0.1092
vt 0.0900 0.1097
vt -0.1620 0.0518
vt -0.1555 0.0459
vt -0.1563 0.0452
vt 0.0465 -0.0752
vt 0.0456 -0.0757
vt 0.0450 -0.0748
vn 0.7652 0.0744 -0.6395
vn -0.5912 -0.1885 0.7842
vn 0.0000 -1.0000 -0.0000
vn 0.5744 -0.0264 -0.8181
vn -0.8120 0.3723 -0.4495
vn 0.7050 -0.3848 0.5957
vn 0.5923 0.2084 -0.7783
vn -0.8181 0.3684 -0.4416
vn 0.8202 -0.3333 0.4649
vn -0.4959 -0.2145 0.8414
vn 0.8007 -0.3868 0.4573
vn -0.4634 0.0873 0.8818
vn -0.7743 0.4704 -0.4234
usemtl mat9
s 1
f 91/421/131 92/422/131 93/423/131
f 94/424/132 95/425/132 96/426/132
f 92/427/133 94/428/133 93/429/133
f 97/430/134 91/431/134 98/432/134
f 96/433/135 95/434/135 93/435/135
f 99/436/136 94/437/136 92/438/136
f 93/439/137 98/440/137 91/441/137
f 95/442/138 98/443/138 93/444/138
f 92/445/139 91/446/139 99/447/139
f 94/448/140 99/449/140 95/450/140
f 97/451/141 99/452/141 91/453/141
f 97/454/142 95/455/142 99/456/142
f 97/457/143 98/458/143 95/459/143
f 94/460/133 96/461/133 93/462/133
o mesh1354063860
v -0.031741 0.064569 0.031921
v -0.031516 -0.000000 0.019389
v -0.027271 -0.000000 0.007180
v -0.039911 -0.000000 0.017937
v -0.041247 0.067024 0.023751
v -0.038605 -0.000000 0.007459
v -0.018761 0.154418 0.028119
v -0.031029 0.064852 0.023161
v -0.040951 0.066602 0.032266
vt 0.1652 0.0309
vt 0.1591 0.0274
vt 0.1582 0.0284
vt -0.1554 0.0442
vt -0.1607 0.0488
vt -0.1547 0.0450
vt 0.0452 -0.0672
vt 0.0447 -0.0679
vt 0.0443 -0.0663
vt 0.1536 0.0806
vt 0.1488 0.0728
vt 0.1481 0.0734
vt -0.1479 0.0464
vt -0.1546 0.0488
vt -0.1472 0.0473
vt 0.1471 0.0641
vt 0.1406 0.0612
vt 0.1401 0.0619
vt 0.1535 0.0479
vt 0.1595 0.0519
vt 0.1601 0.0513
vt -0.1552 0.0461
vt -0.1546 0.0470
vt -0.1478 0.0446
vt 0.1450 0.0468
vt 0.1515 0.0495
vt 0.1521 0.0488
vt -0.1438 0.0722
vt -0.1489 0.0772
vt -0.1482 0.0777
vt 0.1441 0.0538
vt 0.1372 0.0479
vt 0.1366 0.0486
vt -0.1302 0.1045
vt -0.1262 0.0964
vt -0.1270 0.0960
vt -0.1521 0.0535
vt -0.1445 0.0486
vt -0.1452 0.0478
vt 0.0267 -0.0735
vt 0.0258 -0.0729
vt 0.0263 -0.0719
vn 0.9428 -0.0603 0.3278
vn -0.9923 -0.0090 -0.1237
vn 0.0000 -1.0000 -0.0000
vn 0.9873 -0.1394 0.0758
vn -0.0239 0.2352 -0.9716
vn -0.1667 -0.2099 0.9634
vn 0.9959 0.0374 0.0822
vn -0.0052 0.2390 -0.9710
vn -0.0053 -0.1905 0.9817
vn -0.9992 -0.0228 0.0336
vn 0.0453 0.0357 0.9983
vn -0.9680 0.2468 0.0459
vn -0.0445 0.0613 -0.9971
usemtl mat9
s 1
f 100/463/144 101/464/144 102/465/144
f 103/466/145 104/467/145 105/468/145
f 101/469/146 103/470/146 102/471/146
f 106/472/147 100/473/147 107/474/147
f 105/475/148 104/476/148 102/477/148
f 108/478/149 103/479/149 101/480/149
f 102/481/150 107/482/150 100/483/150
f 104/484/151 107/485/151 102/486/151
f 101/487/152 100/488/152 108/489/152
f 103/490/153 108/491/153 104/492/153
f 106/493/154 108/494/154 100/495/154
f 106/496/155 104/497/155 108/498/155
f 106/499/156 107/500/156 104/501/156
f 103/502/146 105/503/146 102/504/146
o mesh1186155763
v 0.056668 0.036836 -0.060146
v 0.022862 0.000000 -0.030741
v 0.014860 0.000000 -0.023845
v 0.029574 0.000000 -0.025749
v 0.061902 0.040652 -0.049715
v 0.025025 0.000000 -0.018950
v 0.084847 0.115992 -0.079458
v 0.052840 0.041251 -0.054038
v 0.064795 0.036444 -0.056132
vt -0.1514 0.0194
vt -0.1489 0.0131
vt -0.1499 0.0124
vt 0.1550 0.0237
vt 0.1576 0.0300
vt 0.1560 0.0234
vt 0.1284 -0.0454
vt 0.1289 -0.0447
vt 0.1292 -0.0463
vt -0.1619 0.0370
vt -0.1570 0.0299
vt -0.1578 0.0295
vt 0.0167 0.0585
vt 0.0194 0.0647
vt 0.0176 0.0577
vt 0.0040 0.0789
vt 0.0066 0.0726
vt 0.0059 0.0722
vt -0.1562 0.0262
vt -0.1578 0.0329
vt -0.1570 0.0333
vt 0.0267 0.0627
vt 0.0275 0.0621
vt 0.0248 0.0557
vt -0.0262 0.0628
vt -0.0292 0.0689
vt -0.0285 0.0695
vt 0.1545 0.0333
vt 0.1559 0.0400
vt 0.1567 0.0397
vt -0.0670 0.1033
vt -0.0615 0.0968
vt -0.0621 0.0962
vt 0.1616 0.0394
vt 0.1577 0.0319
vt 0.1569 0.0323
vt 0.0588 0.0949
vt 0.0543 0.0876
vt 0.0535 0.0883
vt 0.1397 -0.0291
vt 0.1406 -0.0296
vt 0.1402 -0.0306
vn -0.6528 -0.0056 -0.7575
vn 0.7885 -0.3160 0.5276
vn -0.0000 -1.0000 -0.0000
vn -0.7919 0.1367 -0.5951
vn -0.2954 0.7323 0.6135
vn 0.3736 -0.7798 -0.5023
vn -0.7442 0.2249 -0.6290
vn -0.2618 0.7153 0.6480
vn 0.2691 -0.7395 -0.6171
vn 0.7815 -0.2984 0.5479
vn 0.4013 -0.3494 -0.8467
vn 0.8849 -0.0890 0.4572
vn -0.3639 0.4358 0.8232
usemtl mat9
s 1
f 109/505/157 110/506/157 111/507/157
f 112/508/158 113/509/158 114/510/158
f 110/511/159 112/512/159 111/513/159
f 115/514/160 109/515/160 116/516/160
f 114/517/161 113/518/161 111/519/161
f 117/520/162 112/521/162 110/522/162
f 111/523/163 116/524/163 109/525/163
f 113/526/164 116/527/164 111/528/164
f 110/529/165 109/530/165 117/531/165
f 112/532/166 117/533/166 113/534/166
f 115/535/167 117/536/167 109/537/167
f 115/538/168 113/539/168 117/540/168
f 115/541/169 116/542/169 113/543/169
f 112/544/159 114/545/159 111/546/159
