# Blender v2.78 (sub 0) OBJ File: 'model.blend'
# www.blender.org
mtllib tiny_stones.mtl
o mesh1478457009
v 0.215471 0.016019 0.052021
v 0.215642 0.000709 0.050258
v 0.185649 -0.000000 0.018744
v 0.129594 -0.000000 0.103593
v 0.135730 0.016481 0.075622
v 0.121303 -0.000000 0.066256
v 0.168816 -0.000000 0.130617
v 0.143559 0.000456 0.049823
v 0.159079 0.017567 0.043292
v 0.171847 0.017465 0.069543
v 0.188590 0.016046 0.029058
v 0.142404 0.017836 0.055581
v 0.194659 0.017282 0.116447
v 0.170041 0.014848 0.116806
v 0.234059 0.022678 0.087512
v 0.245200 0.012946 0.088081
v 0.199458 0.024953 0.110885
v 0.180176 0.024443 0.070184
v 0.251738 -0.000000 0.089954
v 0.133027 0.014906 0.106220
vt -0.0305 0.1379
vt -0.0295 0.1367
vt -0.0326 0.1336
vt -0.0871 0.0950
vt -0.0848 0.0975
vt -0.0833 0.0956
vt 0.0840 0.0115
vt 0.0764 0.0092
vt 0.0756 0.0118
vt 0.0741 0.0168
vt -0.0756 0.0059
vt -0.0785 0.0062
vt -0.0753 0.0092
vt -0.1194 0.0509
vt -0.1211 0.0514
vt -0.1201 0.0532
vt -0.1169 0.0555
vt 0.0031 0.0572
vt 0.0042 0.0550
vt 0.0026 0.0539
vt -0.0781 0.0099
vt -0.0752 0.0096
vt -0.0758 0.0076
vt -0.0833 0.0104
vt -0.1244 -0.0066
vt -0.1240 -0.0052
vt -0.1209 -0.0088
vt 0.0895 0.0313
vt 0.0913 0.0275
vt 0.0909 0.0265
vt -0.0750 0.0959
vt -0.0705 0.0954
vt -0.0702 0.0944
vt -0.0754 0.0949
vt -0.1250 0.0652
vt -0.1226 0.0684
vt -0.1246 0.0642
vt -0.0806 0.0070
vt -0.0851 0.0075
vt -0.0840 0.0115
vt -0.0271 0.0927
vt -0.0309 0.0955
vt -0.0293 0.0967
vt -0.1192 0.0505
vt -0.1204 0.0481
vt -0.1209 0.0510
vt -0.0630 0.1240
vt -0.0605 0.1280
vt -0.0591 0.1278
vt -0.0975 0.0949
vt -0.0989 0.0962
vt -0.0981 0.0996
vt -0.1259 0.0598
vt -0.1244 0.0627
vt -0.1227 0.0621
vt -0.0215 0.1413
vt -0.0254 0.1376
vt -0.0264 0.1388
vt 0.0782 0.0022
vt 0.0822 0.0041
vt 0.0871 0.0062
vt -0.0802 0.0088
vt -0.0800 0.0135
vt -0.0769 0.0117
vt -0.1026 0.0088
vt -0.0987 0.0078
vt -0.0998 0.0039
vt 0.0726 0.0135
vt 0.0815 0.0172
vt 0.0825 0.0081
vt 0.0746 0.0301
vt 0.0710 0.0386
vt 0.0725 0.0386
vt 0.1070 0.0460
vt 0.1043 0.0544
vt 0.1072 0.0494
vt 0.0510 0.0080
vt 0.0489 0.0134
vt 0.0503 0.0128
vt -0.1239 0.0638
vt -0.1250 0.0652
vt -0.1225 0.0670
vt 0.0824 0.1055
vt 0.0842 0.1021
vt 0.0828 0.1009
vt -0.0728 0.0100
vt -0.0756 0.0087
vt -0.0779 0.0118
vt 0.0789 0.0290
vt 0.0750 0.0263
vt 0.0712 0.0268
vt -0.0689 0.0215
vt -0.0740 0.0231
vt -0.0748 0.0255
vt -0.0725 0.0158
vt -0.0742 0.0145
vt -0.0801 0.0186
vt -0.1113 0.0678
vt -0.1130 0.0695
vt -0.1113 0.0708
vn 0.7206 0.0872 -0.6878
vn -0.7880 0.5903 0.1750
vn -0.0034 -1.0000 -0.0046
vn 0.0432 0.9989 -0.0171
vn -0.5806 0.2187 -0.7842
vn -0.5808 0.2186 -0.7841
vn -0.5770 0.2235 -0.7856
vn -0.0569 0.6825 0.7287
vn 0.0140 0.9999 -0.0029
vn 0.6032 0.6648 -0.4407
vn 0.5549 0.2320 0.7989
vn -0.6533 0.6901 0.3114
vn -0.3185 0.4565 -0.8307
vn 0.0433 0.9985 -0.0330
vn -0.4403 0.6307 0.6390
vn -0.5823 0.2206 -0.7825
vn 0.7499 0.2929 -0.5932
vn 0.6094 0.3466 -0.7130
vn -0.3390 0.5519 -0.7619
vn 0.7379 0.0853 -0.6695
vn 0.5807 -0.6102 -0.5390
vn 0.0228 0.9994 -0.0256
vn 0.1080 0.9653 -0.2377
vn 0.0000 -1.0000 -0.0000
vn 0.4153 0.3323 0.8469
vn 0.4884 -0.0150 0.8725
vn 0.4442 0.5499 0.7074
vn -0.9689 0.2361 -0.0734
vn -0.2736 -0.1055 0.9560
vn -0.0128 0.9987 0.0503
vn -0.0960 0.9882 0.1191
vn -0.0490 0.9975 0.0512
vn -0.6867 0.7040 -0.1811
usemtl mat22
s 1
f 1/1/1 2/2/1 3/3/1
f 4/4/2 5/5/2 6/6/2
f 7/7/3 6/8/3 8/9/3 3/10/3
f 9/11/4 10/12/4 11/13/4
f 8/14/5 12/15/6 9/16/7 3/17/7
f 13/18/8 14/19/8 7/20/8
f 10/21/9 9/22/9 12/23/9 13/24/9
f 15/25/10 16/26/10 1/27/10
f 15/28/11 17/29/11 13/30/11
f 17/31/12 18/32/12 10/33/12 13/34/12
f 18/35/13 1/36/13 10/37/13
f 18/38/14 17/39/14 15/40/14
f 4/41/15 7/42/15 14/43/15
f 8/44/5 6/45/16 12/46/6
f 1/47/17 16/48/17 19/49/17
f 3/50/18 11/51/18 1/52/18
f 9/53/19 11/54/19 3/55/19
f 19/56/20 2/57/20 1/58/20
f 3/59/21 2/60/21 19/61/21
f 10/62/22 1/63/22 11/64/22
f 15/65/23 1/66/23 18/67/23
f 3/68/24 19/69/24 7/70/24
f 7/71/25 19/72/25 16/73/25
f 7/74/26 16/75/26 13/76/26
f 13/77/27 16/78/27 15/79/27
f 4/80/28 20/81/28 5/82/28
f 14/83/29 20/84/29 4/85/29
f 5/86/30 20/87/30 14/88/30
f 7/89/24 4/90/24 6/91/24
f 5/92/31 14/93/31 13/94/31
f 12/95/32 5/96/32 13/97/32
f 6/98/33 5/99/33 12/100/33
o mesh1902334687
v -0.013667 0.010335 -0.138609
v 0.015206 0.000000 -0.131127
v -0.044267 0.000000 -0.157072
v 0.018977 0.000000 -0.087641
v -0.039959 0.007775 -0.082213
v -0.045936 0.000000 -0.077072
v -0.003330 0.015818 -0.117121
v 0.001109 0.017906 -0.097983
v 0.015352 0.006536 -0.092016
v -0.034558 0.013580 -0.142303
v 0.011780 0.011288 -0.121828
v -0.027871 0.019268 -0.117745
v -0.042873 0.013779 -0.117549
v -0.016629 0.018716 -0.088904
vt -0.1111 0.0603
vt -0.1093 0.0630
vt -0.1108 0.0567
vt 0.0610 0.0455
vt 0.0644 0.0406
vt 0.0640 0.0396
vt 0.0549 -0.0018
vt 0.0591 -0.0029
vt 0.0505 -0.0066
vt -0.0533 -0.0817
vt -0.0552 -0.0820
vt -0.0563 -0.0804
vt -0.0866 0.0759
vt -0.0864 0.0770
vt -0.0791 0.0788
vt 0.0998 -0.0511
vt 0.0990 -0.0516
vt 0.0988 -0.0473
vt -0.1143 0.0222
vt -0.1161 0.0234
vt -0.1158 0.0256
vt -0.1155 0.0239
vt -0.1164 0.0209
vt -0.1171 0.0238
vt 0.1152 0.0040
vt 0.1168 0.0038
vt 0.1178 0.0010
vt 0.0478 0.0351
vt 0.0487 0.0353
vt 0.0512 0.0302
vt 0.0568 0.0020
vt 0.0556 -0.0044
vt 0.0481 -0.0015
vt -0.0239 -0.0346
vt -0.0271 -0.0341
vt -0.0243 -0.0330
vt -0.0474 0.0433
vt -0.0469 0.0417
vt -0.0504 0.0406
vt -0.0654 -0.0158
vt -0.0647 -0.0181
vt -0.0674 -0.0159
vt 0.0374 -0.0005
vt 0.0392 -0.0011
vt 0.0397 -0.0030
vt -0.0539 0.0448
vt -0.0541 0.0475
vt -0.0510 0.0474
vt 0.0847 0.0555
vt 0.0873 0.0532
vt 0.0874 0.0506
vt -0.0414 -0.0156
vt -0.0402 -0.0174
vt -0.0422 -0.0191
vt -0.0855 -0.0139
vt -0.0852 -0.0123
vt -0.0831 -0.0145
vt -0.0840 -0.0131
vt -0.0844 -0.0107
vt -0.0820 -0.0113
vt -0.1082 0.0337
vt -0.1085 0.0353
vt -0.1063 0.0368
vt -0.0933 0.0582
vt -0.0912 0.0596
vt -0.0892 0.0587
vt -0.1119 0.0595
vt -0.1094 0.0621
vt -0.1054 0.0634
vt -0.0520 -0.0064
vt -0.0551 -0.0063
vt -0.0549 -0.0043
vn 0.3641 0.4131 -0.8347
vn 0.1420 0.4677 0.8724
vn 0.0000 -1.0000 -0.0000
vn 0.6643 0.7107 -0.2316
vn -0.7980 0.6025 -0.0167
vn 0.8930 0.4434 -0.0774
vn 0.2291 0.6368 -0.7362
vn 0.4002 0.6520 -0.6440
vn 0.9406 0.3344 -0.0594
vn 0.1519 0.6065 0.7804
vn 0.3173 0.9417 0.1121
vn -0.3356 0.9237 0.1846
vn 0.1413 0.9801 -0.1397
vn 0.3365 0.7323 0.5921
vn -0.3795 0.9103 0.1653
vn 0.1751 0.2143 0.9609
vn 0.1462 0.9884 0.0412
vn 0.1781 0.9295 -0.3229
vn 0.1401 0.9411 -0.3076
vn -0.2956 0.7887 -0.5390
vn -0.6585 0.7176 -0.2269
vn -0.9937 -0.0905 0.0666
vn 0.0462 0.9989 0.0011
usemtl mat22
s 1
f 21/101/34 22/102/34 23/103/34
f 24/104/35 25/105/35 26/106/35
f 22/107/36 24/108/36 23/109/36
f 27/110/37 28/111/37 29/112/37
f 26/113/38 25/114/38 23/115/38
f 29/116/39 24/117/39 22/118/39
f 23/119/40 30/120/40 21/121/40
f 22/122/41 21/123/41 31/124/41
f 22/125/42 31/126/42 29/127/42
f 24/128/43 29/129/43 25/130/43
f 24/131/36 26/132/36 23/133/36
f 27/134/44 29/135/44 31/136/44
f 32/137/45 33/138/45 25/139/45
f 27/140/46 32/141/46 28/142/46
f 29/143/47 28/144/47 34/145/47
f 25/146/48 34/147/48 32/148/48
f 29/149/49 34/150/49 25/151/49
f 21/152/50 30/153/50 33/154/50
f 27/155/51 31/156/51 21/157/51
f 32/158/52 27/159/52 21/160/52
f 33/161/53 32/162/53 21/163/53
f 33/164/54 30/165/54 23/166/54
f 25/167/55 33/168/55 23/169/55
f 32/170/56 34/171/56 28/172/56
o mesh1151003068
v -0.124197 0.013506 0.007050
v -0.110614 0.014143 0.044476
v -0.120435 0.000000 -0.000677
v -0.206803 -0.000000 0.042035
v -0.194372 0.015158 0.012888
v -0.196266 -0.000000 0.002002
v -0.205445 -0.000000 0.080731
v -0.184742 0.020963 0.046285
v -0.193347 0.018277 0.082110
v -0.128758 -0.000000 0.100401
v -0.124939 0.012129 0.087034
v -0.107780 0.000002 0.044639
vt -0.0877 0.0933
vt -0.0866 0.0971
vt -0.0865 0.0923
vt -0.1239 0.0466
vt -0.1225 0.0498
vt -0.1207 0.0491
vt 0.0618 -0.0256
vt 0.0581 -0.0244
vt 0.0571 -0.0148
vt -0.0815 0.0584
vt -0.0829 0.0612
vt -0.0793 0.0611
vt -0.1277 0.0277
vt -0.1295 0.0283
vt -0.1261 0.0351
vt 0.0841 0.0744
vt 0.0830 0.0723
vt 0.0789 0.0791
vt -0.1289 0.0334
vt -0.1267 0.0401
vt -0.1252 0.0401
vt 0.0177 0.0163
vt 0.0190 0.0175
vt 0.0232 0.0120
vt -0.0926 0.0717
vt -0.0963 0.0704
vt -0.0972 0.0725
vt 0.1290 0.0146
vt 0.1314 0.0108
vt 0.1312 0.0090
vt 0.0942 0.0957
vt 0.0940 0.0943
vt 0.0894 0.0955
vt 0.1250 -0.0116
vt 0.1224 -0.0063
vt 0.1237 -0.0057
vt 0.0614 -0.0145
vt 0.0661 -0.0148
vt 0.0706 -0.0187
vt -0.0719 -0.0058
vt -0.0683 -0.0030
vt -0.0643 -0.0031
vt -0.1024 0.0480
vt -0.0992 0.0500
vt -0.0978 0.0473
vt -0.0669 -0.0198
vt -0.0594 -0.0169
vt -0.0575 -0.0237
vt -0.0485 -0.0296
vt -0.0515 -0.0318
vt -0.0546 -0.0257
vt -0.0814 -0.0522
vt -0.0849 -0.0521
vt -0.0902 -0.0470
vt 0.0672 -0.0213
vt 0.0637 -0.0190
vt 0.0659 -0.0118
vt 0.0628 -0.0112
vt 0.0720 -0.0153
vt 0.0676 -0.0219
vn 0.8516 0.4180 -0.3162
vn -0.9254 0.2905 -0.2436
vn -0.0000 -1.0000 -0.0000
vn -0.6945 0.7155 0.0759
vn -0.0286 0.5854 -0.8102
vn -0.2474 0.0910 0.9646
vn -0.0613 0.4827 -0.8736
vn 0.0177 0.7379 0.6747
vn -0.8345 0.5502 0.0293
vn 0.9455 0.0559 0.3209
vn 0.9462 0.1866 -0.2643
vn 0.9192 0.1882 0.3458
vn 0.0001 -1.0000 0.0000
vn -0.0915 0.9957 0.0163
vn -0.6740 0.7310 -0.1071
vn 0.0250 0.9995 0.0174
vn 0.0824 0.9921 0.0942
vn 0.3046 0.9197 -0.2477
usemtl mat22
s 1
f 35/173/57 36/174/57 37/175/57
f 38/176/58 39/177/58 40/178/58
f 41/179/59 38/180/59 37/181/59
f 38/182/60 42/183/60 39/184/60
f 40/185/61 39/186/61 37/187/61
f 43/188/62 41/189/62 44/190/62
f 39/191/63 35/192/63 37/193/63
f 44/194/64 45/195/64 43/196/64
f 38/197/65 41/198/65 43/199/65
f 36/200/66 45/201/66 44/202/66
f 36/203/67 46/204/67 37/205/67
f 44/206/68 46/207/68 36/208/68
f 37/209/69 46/210/69 44/211/69
f 45/212/70 36/213/70 35/214/70
f 43/215/71 42/216/71 38/217/71
f 45/218/72 35/219/72 39/220/72
f 42/221/73 43/222/73 45/223/73
f 39/224/74 42/225/74 45/226/74
f 38/227/59 40/228/59 37/229/59
f 37/230/59 44/231/59 41/232/59
